<svg xmlns="http://www.w3.org/2000/svg" width="1200" height="630" viewBox="0 0 1200 630">
  <defs>
    <linearGradient id="bg" x1="0" y1="0" x2="1" y2="1">
      <stop offset="0" stop-color="#07111f"/>
      <stop offset="1" stop-color="#35201c"/>
    </linearGradient>
    <linearGradient id="fire" x1="0" y1="0" x2="1" y2="0">
      <stop offset="0" stop-color="#ffb347"/>
      <stop offset="1" stop-color="#ff5f56"/>
    </linearGradient>
    <filter id="shadow" x="-20%" y="-20%" width="140%" height="140%">
      <feDropShadow dx="0" dy="8" stdDeviation="12" flood-opacity="0.25"/>
    </filter>
  </defs>

  <rect width="1200" height="630" rx="28" fill="url(#bg)"/>
  <circle cx="1050" cy="70" r="225" fill="#ff8a5c" opacity="0.13"/>
  <circle cx="1120" cy="600" r="270" fill="#ff784f" opacity="0.08"/>

  <text x="70" y="86" fill="url(#fire)" font-family="ui-monospace, SFMono-Regular, Menlo, monospace" font-size="24" font-weight="700">OPEN SOURCE · LOCAL ONLY · ZERO TELEMETRY</text>
  <text x="70" y="188" fill="#f7fbff" font-family="Inter, ui-sans-serif, system-ui, sans-serif" font-size="88" font-weight="800" letter-spacing="-4">ctxfire</text>
  <text x="70" y="244" fill="#bdd1dd" font-family="Inter, ui-sans-serif, system-ui, sans-serif" font-size="27">See what each configured coding agent can load.</text>

  <g filter="url(#shadow)" font-family="ui-monospace, SFMono-Regular, Menlo, monospace" font-size="19">
    <rect x="70" y="340" width="190" height="92" rx="17" fill="#241d22" stroke="#9b5b48"/>
    <text x="165" y="394" text-anchor="middle" fill="#fff3ed">agent</text>
    <path d="M260 386 H313" fill="none" stroke="#ff9566" stroke-width="4"/>
    <path d="M303 376 L316 386 L303 396" fill="none" stroke="#ff9566" stroke-width="4"/>

    <rect x="316" y="340" width="210" height="92" rx="17" fill="#241d22" stroke="#9b5b48"/>
    <text x="421" y="394" text-anchor="middle" fill="#fff3ed">adapter@1</text>
    <path d="M526 386 H579" fill="none" stroke="#ff9566" stroke-width="4"/>
    <path d="M569 376 L582 386 L569 396" fill="none" stroke="#ff9566" stroke-width="4"/>

    <rect x="582" y="340" width="210" height="92" rx="17" fill="#241d22" stroke="#9b5b48"/>
    <text x="687" y="378" text-anchor="middle" fill="#fff3ed">context</text>
    <text x="687" y="408" text-anchor="middle" fill="#c6aaa0" font-size="16">exact bytes</text>
    <path d="M792 386 H845" fill="none" stroke="#ff9566" stroke-width="4"/>
    <path d="M835 376 L848 386 L835 396" fill="none" stroke="#ff9566" stroke-width="4"/>

    <rect x="848" y="324" width="282" height="124" rx="17" fill="#30201f" stroke="#ff8b61" stroke-width="2"/>
    <text x="989" y="374" text-anchor="middle" fill="#fff8f4">tokens/fire × fires/day</text>
    <text x="989" y="408" text-anchor="middle" fill="#c6aaa0" font-size="16">estimate + assumptions</text>
  </g>

  <text x="70" y="526" fill="#86a9ba" font-family="Inter, ui-sans-serif, system-ui, sans-serif" font-size="21">Codex · Claude Code · AGENTS.md · JSON · SARIF · CI budgets</text>
  <text x="70" y="577" fill="#d9e6ec" font-family="ui-monospace, SFMono-Regular, Menlo, monospace" font-size="20">github.com/korovin-aa97/ctxfire</text>
</svg>
